<?xml version="1.0" encoding="utf-8"?>
<!-- Generator: Adobe Illustrator 14.0.0, SVG Export Plug-In . SVG Version: 6.00 Build 43363)  -->
<!DOCTYPE svg PUBLIC "-//W3C//DTD SVG 1.1//EN" "http://www.w3.org/Graphics/SVG/1.1/DTD/svg11.dtd">
<svg version="1.1" id="Layer_2" xmlns="http://www.w3.org/2000/svg" xmlns:xlink="http://www.w3.org/1999/xlink" x="0px" y="0px"
	 width="400px" height="1169px" viewBox="0 0 400 1169" enable-background="new 0 0 400 1169" xml:space="preserve">
<path fill="#80BAA4" d="M343.58,773.164L343.58,773.164c-0.593-8.361-2.631-17.161-8.157-23.709
	c-2.502-2.965-5.695-5.327-9.322-6.727c-4.051-1.563-8.532-1.854-12.778-0.995c-4.11,0.832-8.137,2.725-11.153,5.674
	c-1.436,1.403-2.643,3.069-3.412,4.929c-0.843,2.039-1.157,4.259-1.216,6.453c-0.112,4.269,1.008,8.614,3.536,12.092
	c2.416,3.323,6.007,5.599,10.086,6.205c3.472,0.517,7.033-0.13,10.268-1.425v0c2.509-0.895,5.156-2.278,6.92-4.364
	c1.37-0.874,3.497-1.091,4.499,1.472c0.691,7.532-0.343,15.292-4.272,21.863c-4.343,7.264-11.611,12.088-19.53,14.718
	c-8.708,2.891-18.107,3.355-27.185,2.433c-4.608-0.468-9.177-1.3-13.668-2.432c-4.33-1.091-8.519-2.603-12.775-3.938
	c-1.986-0.623-3.99-1.179-6.015-1.664c0.557-2.568,1.04-5.148,1.466-7.736c4.614-0.583,9.072-2.247,12.275-5.639
	c2.403-2.544,4.062-6.447,2.807-9.917c-1.4-3.877-5.655-5.787-9.386-6.671c-1.017-0.239-2.046-0.416-3.082-0.544
	c0.162-1.86,0.331-3.72,0.531-5.576c7.188-3.512,13.857-8.305,18.915-14.551c2.723-3.363,5.001-7.18,6.1-11.394
	c1.062-4.07,0.858-8.541-1.629-12.064c-1.14-1.614-2.701-2.953-4.328-4.057c-1.702-1.154-3.603-2.044-5.624-2.46
	c-4.249-0.875-8.407,0.646-11.491,3.598c-3.134,2.999-5.141,7.036-6.643,11.051c-1.58,4.225-2.681,8.624-3.561,13.043
	c-0.625,3.139-1.137,6.3-1.575,9.471c-6.835,2.506-15.005,3.335-21.616-0.285c-1.388-1.463-2.117-3.197-2.082-5.223
	c0.016-0.896,0.148-1.787,0.316-2.666c0.206-1.075,0.552-2.134,0.703-3.217c0.293-2.101-0.476-4.233-2.315-5.385
	c-1.782-1.116-4.07-1.083-5.978-0.316c-1.544,0.621-2.868,1.714-3.824,3.071c-1.415,1.624-2.178,3.888-2.45,5.997
	c-0.281,2.185-0.004,4.41,0.739,6.48c1.393,3.879,4.298,7.056,7.671,9.343c4.203,2.85,9.096,4.374,14.116,4.844
	c3.805,0.355,4.555,2.264,0.378,3.824c-3.081,1.152-6.08,2.525-8.967,4.061c-0.616,0.327-1.228,0.663-1.834,1.006
	c-3.562-2.201-6.978-4.636-10.263-7.229c-3.438-2.714-6.743-5.595-9.6-8.927c-4.987-5.818-8.847-13.284-7.934-21.154
	c0.926-7.977,6.789-14.538,14.237-17.211c7.879-2.827,17.262-1.028,23.172,5.044c2.907,2.988,4.542,6.941,4.689,11.096l-0.371,4.495
	c0,0,0,0.001,0,0.001c-1.033,3.408-2.391,4.544-3.521,5.674c-1.13,1.13-2.975,4.166,0.714,5.117
	c3.689,0.952,6.189-1.428,7.735-4.403c1.547-2.975,4.931-14.67-4.474-24.076c-3.877-4.691-9.653-7.813-15.646-8.863
	c-7.765-1.36-15.939,0.822-22.064,5.765c-3.103,2.504-5.647,5.695-7.318,9.32c-1.743,3.78-2.484,7.972-2.205,12.122
	c0.545,8.121,4.803,15.471,10.165,21.396c2.65,2.93,5.612,5.533,8.693,7.997c2.14,1.711,4.333,3.358,6.582,4.923
	c0.881,0.613,0.879,2.997,0,3.619c-2.528,1.79-4.966,3.709-7.308,5.737c-1.71,1.48-3.371,3.019-4.981,4.608
	c-1.591,1.57-3.205,3.104-4.947,4.508c-2.82,2.271-6.021,4.318-9.442,5.717c-0.311,0.127-0.958-0.155-1.042-0.407
	c-0.658-1.976-2.839-2.964-4.796-3.008c-1.048-0.023-2.122,0.22-2.997,0.814c-0.95,0.646-1.333,1.618-1.833,2.606
	c-0.289,0.571-0.587,1.146-0.89,1.72c-0.227-0.03-0.454-0.063-0.682-0.101c-3.437-0.58-6.686-2.171-9.175-4.609
	c-0.685-0.685-1.243-1.409-1.69-2.153c-0.525-0.873,0.753-2.269,1.698-2.349c1.039-0.087,2.108-0.392,2.936-1.047
	c0.35-0.277,0.648-0.617,0.866-1.007c0.271-0.486,0.275-0.985,0.243-1.524c-0.262-4.341-0.367-8.691-0.379-13.04
	c-0.002-0.766,0.002-1.531,0.006-2.297c4.775-4.77,13.153-1.311,16.289,2.389c3.136,3.699,12.626-2.011,1.555-9.329
	c-5.134-3.395-10.753-3.155-15.756-1.035c-0.665,0.281-1.9-0.744-1.864-1.586c0.021-0.474,0.043-0.947,0.068-1.42
	c0.049-0.944,0.32-2.102-0.161-2.968c-0.479-0.859-1.331-1.424-2.251-1.719c-1.877-0.602-4.457-0.447-5.968,0.942
	c-0.372,0.342-0.652,0.757-0.752,1.258l-0.676,3.383c-0.2,0.963-0.424,1.929-0.759,2.855c-0.284,0.787-0.667,1.627-1.4,2.09
	c-0.764,0.482-1.739,0.603-2.619,0.688c-1.05,0.101-2.109,0.115-3.164,0.115h-9.354c-0.536,0-1.077,0.003-1.611-0.05
	c-0.066-0.623-0.052-1.258-0.052-1.883v-23.725c-0.001-1.006-0.068-2.063,0.102-3.061c0.732-0.121,1.5-0.093,2.239-0.093h10.845
	c4.063,0,8.714,0.553,11.748,3.55c1.308,1.423,2.157,3.336,2.907,5.094c0.417,0.975,0.796,1.966,1.146,2.966
	c0.335,0.955,0.498,2.156,1.305,2.839c1.599,1.353,4.081,1.568,5.988,0.809c0.907-0.361,1.714-0.989,2.173-1.863
	c0.522-0.994,0.249-2.165,0.165-3.236c-0.339-4.368-0.721-8.733-1.107-13.097c-0.165-1.865-0.342-3.729-0.48-5.597
	c-0.062-0.827-0.266-1.565-1.011-2.04c-0.796-0.507-1.701-0.263-2.579-0.207c-2.493,0.159-4.998,0.187-7.495,0.222
	c-3.078,0.044-6.157,0.06-9.235,0.06h-28.739c-4.647,0-9.294-0.068-13.939-0.207c-1.148-0.034-2.297-0.073-3.445-0.116
	c-0.546-0.021-1.092-0.042-1.638-0.065c-0.569-0.023-1.092-0.017-1.596,0.285c-1.827,1.099-2.408,3.581-2.043,5.562
	c0.237,1.285,1.048,2.824,2.451,3.104l3.39,0.678c0.64,0.128,1.281,0.26,1.912,0.43c0.624,0.168,1.309,0.364,1.818,0.78
	c0.809,0.661,0.987,1.941,1.128,2.912c0.391,2.685,0.34,5.451,0.339,8.157v50.565c0.001,2.635,0.036,5.312-0.297,7.932
	c-0.127,0.999-0.267,2.453-1.107,3.141c-0.464,0.38-1.096,0.542-1.667,0.678c-0.669,0.159-1.351,0.27-2.031,0.375l-6.363,0.948
	c-2.12,0.315-2.71,3.063-2.622,4.821c0.052,1.044,0.311,2.127,0.927,2.988c0.27,0.377,0.618,0.728,1.033,0.942
	c0.511,0.263,1.039,0.234,1.596,0.22c4.027-0.106,8.054-0.208,12.083-0.282c3.538-0.066,7.075-0.108,10.614-0.108h17.623
	c8.842,0,17.687,0.053,26.527,0.265c0.919,0.022,1.838,0.046,2.758,0.074c0.4,0.012,0.799,0.025,1.199,0.039
	c0.414,0.014,0.846,0.069,1.255-0.015c0.938-0.191,1.387-0.903,1.766-1.71c0.424-0.904,0.79-1.835,1.134-2.772
	c1.542-4.193,2.717-8.552,3.59-12.932c0.055-0.277,0.103-0.556,0.155-0.833c2.679-0.736,5.278-1.83,7.704-3.184
	c3.602-2.01,6.89-4.554,9.894-7.372c1.687-1.583,3.295-3.243,5.008-4.798c1.622-1.472,3.292-2.889,5.012-4.244
	c2.604-2.051,5.32-3.959,8.145-5.693c6.521,3.745,13.638,6.816,21.094,8.06c-0.233,1.329-0.482,2.654-0.75,3.976
	c-0.158,0.778-0.322,1.555-0.493,2.33c-8.76-0.776-18.131,0.292-25.549,5.371c-3.258,2.231-6.023,5.206-7.801,8.746
	c-1.846,3.676-2.613,7.915-1.916,11.987c0.623,3.634,2.399,7.047,5.077,9.589c3.012,2.859,7.084,4.732,11.233,5.035
	c4.256,0.311,8.422-1.136,11.841-3.626c3.362-2.45,6.009-5.778,8.165-9.306c2.985-4.884,5.117-10.256,6.803-15.711
	c4.482,1.061,8.773,2.683,13.17,4.029s8.871,2.441,13.399,3.245c8.973,1.592,18.201,2.045,27.25,0.826
	c8.332-1.123,16.583-3.704,23.682-8.285c6.411-4.137,11.776-9.899,15.125-16.78c3.066-6.302,4.393-13.315,4.364-20.3
	C343.711,775.593,343.666,774.376,343.58,773.164z M326.204,760.542c-0.497-0.168-1.015-0.28-1.545-0.319
	c-2.048-0.151-3.909,0.692-5.387,2.07c-0.743,0.692-1.387,1.48-2.031,2.263c-0.534,0.648-1.125,1.508-1.912,1.867
	c-2.049,0.426-4.163,0.098-5.511-1.631c-1.305-1.673-1.72-3.965-1.604-6.041c0.053-0.938,0.122-1.967,0.635-2.781
	c0.549-0.873,1.387-1.542,2.253-2.08c1.812-1.127,3.915-1.791,6.042-1.938c2.138-0.148,4.321,0.237,6.234,1.219
	c1.8,0.923,3.305,2.336,4.502,3.953c0.277,0.375,0.536,0.761,0.783,1.153C328.832,760.461,327.764,760.756,326.204,760.542z
	 M256.964,749.445c0.317-1.351,0.665-2.694,1.056-4.026c0.819-2.791,1.787-5.591,3.22-8.132l0-0.001
	c0.471-0.837,0.982-1.665,1.62-2.387c0.533-0.603,1.247-1.309,2.103-1.322c0.829-0.002,1.638,0.483,2.287,0.954
	c0.663,0.477,1.509,0.991,1.68,1.85c0.068,0.34,0.071,0.692,0.052,1.038l0-0.002c-0.103,1.834-0.879,3.597-1.752,5.185
	c-0.892,1.623-1.989,3.126-3.191,4.531c-1.449,1.692-3.059,3.238-4.78,4.65C258.197,752.653,256.59,751.038,256.964,749.445z
	 M253.056,778.199c1.323,0.171,2.629,0.441,3.889,0.859c1.329,0.442,2.744,1.063,3.706,2.116c0.521,0.57,0.783,1.202,0.728,1.977
	c-0.061,0.852-0.356,1.67-0.786,2.403c-1.773,3.028-5.434,4.56-8.724,5.238c-0.072,0.015-0.146,0.027-0.218,0.042
	C252.226,786.636,252.675,782.421,253.056,778.199z M168.141,816.43c-1.38,1.371-3.018,2.417-4.884,2.992
	c-1.871,0.576-3.848,0.737-5.794,0.814c-2.145,0.084-4.298,0.083-6.444,0.044c-1.866-0.033-3.741-0.104-5.592-0.358
	c-1.325-0.184-2.793-0.43-3.907-1.223c-1.122-0.799-1.654-2.102-1.987-3.392c-0.772-2.996-0.793-6.206-0.793-9.28v-16.132
	c-0.002-0.934,0.012-1.626,0.054-2.031c0.534-0.045,1.073-0.039,1.608-0.039h9.354c1.012-0.001,2.027,0.017,3.035,0.114
	c0.671,0.064,1.371,0.157,2.012,0.392c-0.589,2.287-0.788,4.864-0.552,7.217c0.462,7.612,6.166,14.146,13.133,16.86
	c1.079,0.42,2.172,0.746,3.275,0.991C169.9,814.48,169.072,815.506,168.141,816.43z M230.817,824.251
	c-1.084,1.758-2.329,3.45-3.816,4.89c-1.479,1.433-3.328,2.743-5.438,2.937c-0.358,0.032-0.719,0.032-1.077-0.003h0.001
	c-0.763-0.074-1.574-0.312-2.347-0.683c-1.756-0.841-3.183-2.248-3.786-4.124c-0.644-2.001-0.32-4.192,0.558-6.069
	c1.783-3.809,5.546-6.194,9.454-7.387c1.892-0.578,3.852-0.917,5.818-1.115c1-0.101,2.003-0.164,3.007-0.201
	c0.502-0.019,1.004-0.03,1.506-0.036c0.438-0.005,0.904-0.05,1.335,0.041C234.689,816.562,233.069,820.601,230.817,824.251z
	 M241.563,785.836c-0.199,1.647-0.417,3.293-0.657,4.936c-4.938-0.839-9.7-2.553-14.213-4.722c-0.867-0.417-0.821-2.176,0.071-2.591
	c4.93-2.294,10.172-4.061,15.545-4.919C242.092,780.974,241.856,783.408,241.563,785.836z M249.57,693.3
	c5.015,6.319,12.031,11.166,19.621,13.847c8.055,2.846,17.011,3.383,25.401,1.876c8.021-1.44,15.463-5.055,21.589-10.423
	c6.177-5.412,11.232-12.324,14.043-20.069c2.882-7.941,3.431-16.812,1.525-25.044c-0.986-4.263-2.657-8.352-4.898-12.107h0
	c-4.25-7.131-10.455-12.9-17.998-16.407c-7.415-3.448-15.77-4.619-23.893-4.199c-8.281,0.428-16.373,2.854-23.297,7.465
	c-6.754,4.497-12.475,10.837-16.104,18.104c-3.83,7.671-5.091,16.307-4.368,24.808C241.873,679.169,244.537,686.958,249.57,693.3z
	 M313.545,638.289c4.629,4.315,8.01,9.998,9.63,16.1c2.133,8.036,1.302,16.908-2.284,24.405c-1.343,2.807-3.051,5.432-5.015,7.851
	c-1.223,1.506-2.589,0.648-2.086-1.218c1.674-6.209,2.158-12.769,2.215-19.15c0.075-8.334-0.571-16.918-3.401-24.82
	c-0.192-0.535-0.394-1.067-0.607-1.594C311.36,638.288,312.369,637.192,313.545,638.289z M268.039,649.145
	c0.848-3.753,2.138-7.472,4.223-10.727c2.053-3.205,4.8-6.116,8.312-7.704c3.622-1.638,7.974-1.774,11.713-0.44
	c3.659,1.306,6.562,4.025,8.771,7.154c4.486,6.351,5.815,14.495,6.262,22.095c0.259,4.417,0.224,8.869-0.125,13.279
	c-0.303,3.831-0.861,7.666-1.936,11.361c-1.045,3.59-2.616,6.951-5.009,9.841c-2.496,3.013-5.681,5.559-9.531,6.537
	c-3.99,1.014-8.459,0.402-11.98-1.742c-3.365-2.049-5.831-5.334-7.588-8.807c-3.667-7.246-4.569-15.71-4.656-23.724
	C266.432,660.542,266.771,654.745,268.039,649.145z M126.155,700.187c3.397-4.364,6.398-9.023,9.065-13.867
	c0.467-0.848,2.506-0.863,3.107-0.036c3.194,4.399,7.024,8.358,11.572,11.341c1.521,0.998,3.125,1.88,4.792,2.613
	c1.197,4.267,2.546,8.49,4.099,12.633c0.409,1.091,0.833,2.178,1.283,3.254c0.385,0.921,0.754,1.876,1.418,2.64
	c1.348,1.546,3.545,2.172,5.512,1.606c1.841-0.528,3.274-2.058,3.704-3.921c0.223-0.971,0.137-1.963-0.045-2.933
	c-0.198-1.055-0.38-2.108-0.542-3.169c-0.381-2.507-0.72-5.021-1.02-7.54c7.866-0.65,13.549-4.673,15.311-6.245
	c2.561-2.287,4.887-4.632,4.762-7.948c-0.125-3.315-2.215-4.781-5.049-4.673c-2.834,0.107-3.77,2.934-4.436,5.324
	c-0.403,1.448-2.237,3.67-3.532,4.687c-2.286,1.642-4.885,2.8-7.641,3.316c-0.46-4.966-0.747-9.947-0.814-14.932
	c-0.124-9.11,0.394-18.328,2.266-27.261c0.902-4.305,2.123-8.57,3.846-12.621c1.678-3.945,3.885-7.758,6.964-10.78
	c3.02-2.965,6.804-4.915,11.006-5.503c4.173-0.584,8.631,0.014,12.537,1.578c3.52,1.41,6.615,3.773,8.778,6.9
	c2.32,3.354,3.494,7.408,3.614,11.464c0.114,4.198-0.944,8.548-3.281,12.065c-2.199,3.312-5.516,5.544-9.447,6.206
	c-3.051,0.514-6.629,0.334-9.05-1.822c-1.138-1.014-1.974-2.37-2.366-3.842c-0.204-0.767-0.285-1.567-0.217-2.359
	c0.064-0.75,0.232-1.649,0.764-2.222l0.002-0.003c0.115-0.125,0.236-0.208,0.35-0.257l0.013-0.005
	c0.245-0.094,0.519-0.125,0.771-0.196c0.369-0.104,0.726-0.248,1.063-0.431c0.654-0.354,1.229-0.848,1.682-1.438
	c1.014-1.322,1.37-3.085,0.922-4.693l0,0c-0.506-1.812-1.991-3.244-3.807-3.72c-1.891-0.495-3.971,0.189-5.649,1.068
	c-3.626,1.9-5.877,5.575-6.548,9.547c-1.236,7.307,2.447,14.94,8.845,18.622c2.192,1.383,4.418,2.372,6.64,2.991
	c4.209,1.176,8.681,1.037,12.821-0.35c3.751-1.257,7.143-3.459,9.995-6.183c5.857-5.592,9.694-13.459,10.394-21.534
	c0.271-3.127,0.059-6.3-0.725-9.344c-1.979-7.688-6.329-14.703-12.897-19.275c-6.702-4.665-15.113-6.419-23.162-5.285
	c-7.618,1.073-14.771,4.682-20.218,10.107c-0.378,0.377-0.784,0.752-1.115,1.172c-5.809,6.15-9.321,14.151-11.572,22.212
	c-0.49,1.755-0.92,3.526-1.299,5.309c-0.679,3.198-2.336,3.248-2.638,0.025c-0.571-6.102-0.961-12.22-1.187-18.345
	c-0.348-9.388-0.405-18.825,0.107-28.207c0.092-1.68,0.184-3.36,0.252-5.042c0.06-1.449,0.291-3.012-0.06-4.437
	c-0.724-2.952-3.977-4.711-6.852-3.75l0.001,0c-1.823,0.612-3.173,2.17-3.541,4.054c-0.188,0.961-0.173,1.964-0.225,2.939
	c-0.063,1.173-0.119,2.347-0.175,3.52c-0.224,4.659-0.526,9.302-1.024,13.94c-0.988,9.206-2.507,18.363-4.681,27.365
	c-1.312,5.431-2.865,10.807-4.699,16.086c-0.533,1.535-2.637,1.674-3.195,0.248c-0.725-1.855-1.55-3.671-2.502-5.421
	c-1.848-3.401-4.188-6.586-7.155-9.099c-2.983-2.525-6.62-4.318-10.534-4.743c-3.951-0.43-8.085,0.58-11.209,3.087
	c-3.128,2.511-4.853,6.518-4.779,10.513c0.078,4.205,2.497,7.923,6.125,9.977c1.85,1.047,3.969,1.677,6.101,1.701
	c0.423,0.004,0.847-0.024,1.269-0.072l0.01,0.007c3.445-0.13,8.498-3.487,6.776-7.276c-1.723-3.788-6.273-1.839-7.041,0.266
	c-0.656,1.801-4.352,1.271-6.054,0.042c-0.438-0.394-0.833-0.831-1.158-1.318c-1.084-1.626-1.257-3.604-0.818-5.474
	c0.456-1.939,1.411-3.583,3.042-4.756c1.628-1.17,3.632-1.76,5.627-1.814c7.75-0.209,13.279,6.749,16.319,13.085
	c1.824,3.801,2.905,7.887,4.477,11.79c0.08,0.199,0.164,0.396,0.245,0.593c-3.238,7.293-7.136,14.313-11.938,20.694
	c-4.847,6.442-10.75,12.495-17.975,16.244c-3.85,1.998-8.126,3.248-12.49,3.126c-4.181-0.118-8.233-1.487-11.624-3.936
	c-4.471-3.227-7.921-8.338-8.042-13.981v-0.003c-0.1-4.159,0.797-8.569,3.607-11.775c2.538-2.894,6.322-4.484,10.161-4.361
	c3.458,0.112,6.832,1.613,8.875,4.464c0.967,1.35,1.925,3.142,1.768,4.854c-0.155,1.677-1.775,2.879-3.358,3.09
	c-0.071-0.121-0.158-0.255-0.268-0.397l-0.001-0.001c-1.263-1.615-3.41-2.378-5.408-1.911c-1.835,0.429-3.337,1.849-3.892,3.647
	c-1.315,4.266,2.813,8.111,6.61,9.03c4.04,0.978,8.457-0.367,11.662-2.903c3.182-2.518,5.182-6.281,5.314-10.354
	c0.069-2.132-0.348-4.259-1.087-6.254l0,0c-0.004-0.012-0.008-0.023-0.013-0.036l0,0c-1.35-3.81-3.615-7.28-6.736-9.871
	c-3.128-2.596-6.979-4.209-10.991-4.79c-8.228-1.191-17.012,1.817-22.655,7.95c-2.808,3.052-4.692,6.789-5.576,10.834
	c-0.455,2.079-0.677,4.204-0.673,6.328c0.005,2.139,0.24,4.277,0.699,6.369c1.708,7.784,6.481,14.797,13.1,19.237
	c3.889,2.608,8.37,4.284,13.019,4.855c8.823,1.749,17.837-0.627,25.448-5.181C115.08,712.661,121.099,706.683,126.155,700.187z
	 M139.419,677.982c2.163-4.697,4.068-9.509,5.745-14.399c0.595-1.735,2.123-1.52,2.359,0.334c0.946,7.431,2.167,14.827,3.72,22.156
	c0.25,1.176,0.506,2.351,0.772,3.525c0.308,1.363-1.39,2.462-2.484,1.548c-1.524-1.274-2.938-2.667-4.224-4.113
	c-2.334-2.625-4.359-5.505-6.125-8.543C139.261,678.321,139.341,678.152,139.419,677.982z"/>
</svg>
